<svg xmlns="http://www.w3.org/2000/svg" viewBox="0 0 32 32" role="img" aria-label="Light in You Trust">
  <rect width="32" height="32" fill="#0a0a0a"></rect>
  
  <g fill="#f8f5ee">
    <path d="M9.5 8 h6.5 v0.9 q-1.3 0.1 -1.85 0.4 q-0.55 0.3 -0.75 1.1 q-0.2 0.8 -0.2 2.2 v11.6 q0 1.4 0.2 2.1 q0.2 0.7 0.75 0.9 q0.55 0.2 1.85 0.3 h3.2 q1.6 0 2.35 -0.27 q0.75 -0.27 1.18 -0.93 q0.43 -0.66 0.75 -2.04 l0.45 -1.9 h0.75 l-0.55 6.1 H9.5 v-0.9 q1.3 -0.1 1.85 -0.3 q0.55 -0.2 0.75 -0.9 q0.2 -0.7 0.2 -2.1 v-11.6 q0 -1.4 -0.2 -2.2 q-0.2 -0.8 -0.75 -1.1 q-0.55 -0.3 -1.85 -0.4 z"></path>
  </g>
  <circle cx="23.5" cy="9.5" r="1.5" fill="#c8551c"></circle>
</svg>