<svg xmlns="http://www.w3.org/2000/svg" viewBox="0 0 200 200" role="img" aria-label="Light in You Trust">
  
  <rect x="16" y="16" width="168" height="168" fill="none" stroke="currentColor" stroke-width="1" vector-effect="non-scaling-stroke"></rect>
  
  <g fill="currentColor">
    <path d="M65 56 h35 v3 q-6 0.4 -8.5 1.6 q-2.5 1.2 -3.5 4 q-1 2.8 -1 8 v52 q0 6 1 8.6 q1 2.6 3.5 3.6 q2.5 1 8 1.3 h12 q7 0 10.2 -1 q3.2 -1 5.2 -3.6 q2 -2.6 3.2 -8.2 l1.8 -7 h3.2 l-2.2 24 H65 v-3 q5.5 -0.3 8 -1.3 q2.5 -1 3.5 -3.6 q1 -2.6 1 -8.6 v-52 q0 -5.2 -1 -8 q-1 -2.8 -3.5 -4 q-2.5 -1.2 -8 -1.6 z"></path>
  </g>
  <circle cx="148" cy="58" r="4" fill="currentColor"></circle>
</svg>